<svg width="120" height="120" viewBox="0 0 120 120" xmlns="http://www.w3.org/2000/svg">
  <defs>
    <linearGradient id="grad" x1="15%" y1="15%" x2="85%" y2="85%">
      <stop offset="0%" stop-color="#4c4cff"/>
      <stop offset="50%" stop-color="#5a8dff"/>
      <stop offset="100%" stop-color="#14b6ff"/>
    </linearGradient>
    <linearGradient id="shield" x1="0%" y1="0%" x2="100%" y2="100%">
      <stop offset="0%" stop-color="#ffffff" stop-opacity="0.9"/>
      <stop offset="100%" stop-color="#dbe7ff" stop-opacity="0.8"/>
    </linearGradient>
  </defs>
  <rect x="10" y="10" width="100" height="100" rx="28" fill="url(#grad)"/>
  <path d="M60 28L84 38.5V58c0 20.5-13.6 36.7-23.1 43.5c-1.9 1.4-4.5 1.4-6.4 0C44.1 94.7 30 79.6 30 58V38.5L60 28Z" fill="url(#shield)"/>
  <circle cx="60" cy="57" r="21" fill="#4c4cff" opacity="0.16"/>
  <path d="M60 42c-8.3 0-15 6.7-15 15s6.7 15 15 15s15-6.7 15-15-6.7-15-15-15Zm0 24a9 9 0 1 1 0-18a9 9 0 0 1 0 18Z" fill="#2d2c8f"/>
  <path d="M60 48c-5 0-9 4-9 9h6a3 3 0 0 1 6 0h6c0-5-4-9-9-9Z" fill="#4c4cff"/>
  <circle cx="60" cy="57" r="4" fill="#ffffff"/>
</svg>

